<svg width="90" height="90" viewBox="0 0 90 90" fill="none" xmlns="http://www.w3.org/2000/svg">
<path d="M66.3747 37.5158V61.0105C66.3747 63.521 68.3903 65.5579 70.8747 65.5579H73.8747C76.3591 65.5579 78.3747 63.521 78.3747 61.0105V59.6842H83.9997C86.4841 59.6842 88.4997 57.6473 88.4997 55.1368V43.3894C88.4997 40.8789 86.4841 38.8421 83.9997 38.8421H78.3747V37.5158C78.3747 35.0052 76.3591 32.9684 73.8747 32.9684H70.8747C68.3903 32.9684 66.3747 35.0052 66.3747 37.5158Z" fill="#FAC0D1"/>
<path d="M58.6878 88.4842C61.3802 88.4842 63.5628 86.2786 63.5628 83.5579C63.5628 80.8372 61.3802 78.6316 58.6878 78.6316C55.9954 78.6316 53.8128 80.8372 53.8128 83.5579C53.8128 86.2786 55.9954 88.4842 58.6878 88.4842Z" fill="#FAC0D1"/>
<path d="M78.3747 61.0105C78.3747 63.521 76.3591 65.5579 73.8747 65.5579H70.8747C68.3903 65.5579 66.3747 63.521 66.3747 61.0105V37.5158C66.3747 35.0052 68.3903 32.9684 70.8747 32.9684H73.8747C76.3591 32.9684 78.3747 35.0052 78.3747 37.5158V61.0105Z" fill="#FFE7EE"/>
<path d="M23.6251 37.5158V61.0105C23.6251 63.521 21.6094 65.5579 19.1251 65.5579H16.1251C13.6407 65.5579 11.6251 63.521 11.6251 61.0105V59.6842H6.00006C3.51569 59.6842 1.50006 57.6473 1.50006 55.1368V43.3894C1.50006 40.8789 3.51569 38.8421 6.00006 38.8421H11.6251V37.5158C11.6251 35.0052 13.6407 32.9684 16.1251 32.9684H19.1251C21.6094 32.9684 23.6251 35.0052 23.6251 37.5158Z" fill="#FAC0D1"/>
<path d="M23.4871 36.3933C23.7558 37.4625 23.0283 38.5042 21.979 38.6382C19.2573 38.9853 17.2503 41.3884 17.2503 44.1608V61.0292C17.2503 64.7244 11.6253 64.9332 11.6253 61.0105V37.5158C11.6253 35.0043 13.64 32.9684 16.1253 32.9684H19.1253C21.2271 32.9684 22.9926 34.4247 23.4871 36.3933Z" fill="#FAC0D1"/>
<path d="M78.2782 36.3934C78.5469 37.4626 77.8194 38.5043 76.7701 38.6382C74.0482 38.9854 72.0412 41.3886 72.0412 44.161V61.0295C72.0412 64.7246 66.4162 64.9334 66.4162 61.0107V37.516C66.4162 35.0045 68.4309 32.9686 70.9162 32.9686H73.9162C76.0183 32.9684 77.7836 34.4247 78.2782 36.3934V36.3934Z" fill="#FAC0D1"/>
<path d="M11.6242 38.8421V42.6316H9.74922C7.2639 42.6316 5.24922 44.6684 5.24922 47.1797C5.24922 50.8873 5.24734 53.4501 5.24659 55.2323C5.24547 57.6587 1.63122 57.8018 1.50559 55.3788C1.49565 55.1899 1.49922 43.2013 1.49922 43.3895C1.49922 40.878 3.5139 38.8421 5.99922 38.8421H11.6242Z" fill="#FFE7EE"/>
<path d="M78.3747 38.8421H82.1247V59.6842H78.3747V38.8421Z" fill="#FFE7EE"/>
<path d="M3 43.3895V55.1368C3 56.8084 4.34588 58.1684 6 58.1684C6.82838 58.1684 7.5 58.8471 7.5 59.6842C7.5 60.5213 6.82838 61.2 6 61.2C2.69156 61.2 0 58.4801 0 55.1368V43.3895C0 40.0462 2.69156 37.3263 6 37.3263C6.82838 37.3263 7.5 38.005 7.5 38.8421C7.5 39.6792 6.82838 40.3579 6 40.3579C4.34588 40.3579 3 41.7179 3 43.3895ZM84 37.3263C83.1716 37.3263 82.5 38.005 82.5 38.8421C82.5 39.6792 83.1716 40.3579 84 40.3579C85.6541 40.3579 87 41.7179 87 43.3895V55.1368C87 56.8084 85.6541 58.1684 84 58.1684C83.1716 58.1684 82.5 58.8471 82.5 59.6842C82.5 60.5213 83.1716 61.2 84 61.2C87.3084 61.2 90 58.4801 90 55.1368V43.3895C90 40.0462 87.3084 37.3263 84 37.3263ZM18.75 29.5579V31.4526H19.125C22.4334 31.4526 25.125 34.1725 25.125 37.5158V61.0105C25.125 64.3538 22.4334 67.0737 19.125 67.0737H16.125C12.8166 67.0737 10.125 64.3538 10.125 61.0105V37.5158C10.125 34.3 12.6158 31.662 15.75 31.4657V29.5579C15.75 13.2596 28.8714 0 45 0C61.1286 0 74.25 13.2596 74.25 29.5579V31.4657C77.3843 31.6622 79.875 34.3 79.875 37.5158V61.0105C79.875 64.3538 77.1834 67.0737 73.875 67.0737H70.875C67.5666 67.0737 64.875 64.3538 64.875 61.0105V37.5158C64.875 34.1725 67.5666 31.4526 70.875 31.4526H71.25V29.5579C71.25 14.9313 59.4742 3.03158 45 3.03158C30.5258 3.03158 18.75 14.9313 18.75 29.5579ZM73.875 34.4842H70.875C69.2209 34.4842 67.875 35.8443 67.875 37.5158V61.0105C67.875 62.6821 69.2209 64.0421 70.875 64.0421H73.875C75.5291 64.0421 76.875 62.6821 76.875 61.0105V37.5158C76.875 35.8443 75.5291 34.4842 73.875 34.4842ZM16.125 34.4842C14.4709 34.4842 13.125 35.8443 13.125 37.5158V61.0105C13.125 62.6821 14.4709 64.0421 16.125 64.0421H19.125C20.7791 64.0421 22.125 62.6821 22.125 61.0105V37.5158C22.125 35.8443 20.7791 34.4842 19.125 34.4842H16.125ZM85.6875 66.8842C85.6875 76.914 77.6128 85.0737 67.6875 85.0737H64.8825C64.206 87.8967 61.6858 90 58.6875 90C55.1723 90 52.3125 87.1101 52.3125 83.5579C52.3125 80.0056 55.1723 77.1158 58.6875 77.1158C61.686 77.1158 64.206 79.2191 64.8825 82.0421H67.6875C75.9585 82.0421 82.6875 75.2423 82.6875 66.8842C82.6875 66.0471 83.3591 65.3684 84.1875 65.3684C85.0159 65.3684 85.6875 66.0471 85.6875 66.8842ZM62.0625 83.5579C62.0625 81.6774 60.5484 80.1474 58.6875 80.1474C56.8266 80.1474 55.3125 81.6774 55.3125 83.5579C55.3125 85.4384 56.8266 86.9684 58.6875 86.9684C60.5484 86.9684 62.0625 85.4384 62.0625 83.5579ZM58.44 50.6666C58.6719 49.8628 58.2152 49.0212 57.42 48.787C56.625 48.5521 55.7919 49.014 55.56 49.8176C54.2001 54.5298 49.8576 57.8209 45 57.8209C40.1424 57.8209 35.8001 54.5298 34.44 49.8176C34.2081 49.0142 33.3754 48.5515 32.58 48.787C31.7846 49.0212 31.3281 49.8628 31.56 50.6666C33.291 56.664 38.8177 60.8527 45 60.8527C51.1823 60.8527 56.709 56.6642 58.44 50.6666ZM35.4999 35.8736C37.1368 35.8736 38.4686 37.2196 38.4686 38.8737C38.4686 40.5279 37.1368 41.8737 35.4999 41.8737C33.8631 41.8737 32.5313 40.5279 32.5313 38.8737C32.5313 37.2196 33.8631 35.8736 35.4999 35.8736ZM54.5001 35.9684C56.0854 35.9684 57.375 37.2717 57.375 38.8737C57.375 40.4757 56.0854 41.7789 54.5001 41.7789C52.9147 41.7789 51.6251 40.4757 51.6251 38.8737C51.6251 37.2717 52.9147 35.9684 54.5001 35.9684Z" fill="#FF8CAF"/>
</svg>
